<svg width="121" height="58" viewBox="0 0 121 58" fill="none" xmlns="http://www.w3.org/2000/svg">
<path d="M4.00094 48.5753C1.79181 48.5753 0.000549316 46.7841 0.000549316 44.575C0.000549316 30.9306 0.000549316 17.6448 0.000549316 4.00036C0.000549316 1.79122 1.7915 0 4.00064 0C41.6705 0 78.8393 0 116.509 0C118.718 0 120.509 1.79121 120.509 4.00035C120.509 17.8393 120.509 31.3112 120.509 45.2426C120.509 46.97 119.109 48.3704 117.382 48.3704C101.088 48.3704 86.2831 48.3704 69.9898 48.3704C68.4527 48.3704 67.428 48.5753 66.5057 50.01C63.8414 54.1089 59.3326 55.5435 54.9262 57.1831C52.9792 54.6213 51.0322 52.1619 49.0852 49.6001C48.5729 48.8828 47.958 48.5753 47.0358 48.5753C32.5759 48.5753 18.5464 48.5753 4.00094 48.5753ZM46.4209 26.0312C46.216 25.8262 46.011 25.7238 46.011 25.7238C42.322 19.2679 38.6329 12.8121 34.8414 6.35628C34.6365 6.04886 34.2266 5.53649 33.9191 5.53649C32.587 5.43401 31.1524 5.53649 29.7177 5.53649C29.7177 17.5259 29.7177 29.3103 29.7177 41.1973C31.5622 41.1973 33.4068 41.1973 35.3538 41.1973C35.3538 34.2291 35.3538 27.3633 35.3538 20.4976C35.5587 20.6001 35.6612 20.6001 35.6612 20.6001C37.9156 24.5966 40.17 28.4905 42.322 32.487C43.8591 35.1513 45.2937 37.8156 46.8308 40.4799C47.0358 40.8898 47.4456 41.4022 47.8555 41.4022C49.2902 41.5047 50.7248 41.4022 52.0569 41.4022C52.0569 29.4128 52.0569 17.5259 52.0569 5.74143C50.11 5.74143 48.163 5.74143 46.216 5.74143C46.4209 12.5047 46.4209 19.1655 46.4209 26.0312ZM65.5835 5.74143C65.5835 13.222 65.5835 20.6001 65.5835 27.9782C65.5835 29.9252 65.6859 31.8722 66.0958 33.7167C66.7107 36.9958 68.2478 39.6602 71.5269 40.6849C73.4739 41.2997 75.5234 41.5047 77.5729 41.5047C81.4668 41.5047 85.0534 39.4552 86.2831 35.4587C87.0004 33.2043 87.3078 30.745 87.4103 28.2856C87.5128 21.1125 87.4103 14.0418 87.4103 6.86864C87.4103 6.45875 87.4103 6.04885 87.4103 5.53649C85.3608 5.53649 83.5163 5.53649 81.4669 5.53649C81.4669 6.04885 81.4669 6.45875 81.4669 6.97112C81.4669 14.1443 81.4669 21.4199 81.4669 28.593C81.4669 29.7202 81.3644 30.8474 81.1594 31.9746C80.852 34.1266 79.2124 35.6637 77.3679 35.7662C74.4986 35.9711 72.8591 34.9464 72.2442 32.5895C72.0393 31.7697 71.9368 30.9499 71.9368 30.2326C71.9368 22.4446 71.9368 14.6566 71.9368 6.86864C71.9368 6.45875 71.9368 6.04885 71.9368 5.53649C69.7849 5.74143 67.7354 5.74143 65.5835 5.74143ZM113.541 41.0948C113.029 39.4552 112.619 38.0206 112.209 36.5859C109.442 27.1584 106.778 17.6284 104.011 8.2008C103.191 5.43401 103.191 5.43401 100.322 5.43401C100.015 5.43401 99.7071 5.43401 99.5022 5.43401C98.5799 5.22907 98.17 5.74143 97.9651 6.56122C95.3008 15.9888 92.534 25.3139 89.8697 34.7414C89.2548 36.8934 88.64 38.9428 88.0251 41.1973C90.1771 41.1973 92.1241 41.1973 94.1736 41.1973C94.8909 38.4305 95.6082 35.6637 96.3255 32.8969C98.7849 32.8969 101.039 32.9994 103.191 32.8969C104.523 32.7944 104.933 33.3068 105.241 34.5365C105.753 36.7909 106.368 39.0453 106.983 41.1973C109.237 41.0948 111.287 41.0948 113.541 41.0948ZM19.3679 11.5824C18.1382 13.8368 16.9085 15.9888 15.7813 18.0382C13.2195 22.6496 10.8626 27.4658 8.09582 31.9746C6.35377 34.9464 6.14883 37.9181 6.45625 41.0948C13.117 41.0948 19.7778 41.0948 26.4386 41.0948C26.4386 39.2503 26.4386 37.4057 26.4386 35.4587C22.1347 35.4587 18.0358 35.4587 13.5269 35.4587C14.1418 34.3315 14.6541 33.4093 15.1665 32.3845C18.4456 26.4411 21.7248 20.4976 24.9015 14.5542C25.4138 13.6319 26.2336 12.7096 26.3361 11.6849C26.5411 9.7379 26.4386 7.68843 26.4386 5.74143C19.6753 5.74143 13.0145 5.74143 6.35377 5.74143C6.35377 7.68843 6.35377 9.63543 6.35377 11.5824C10.7601 11.5824 14.9615 11.5824 19.3679 11.5824ZM58.9227 41.6072C58.6153 43.5541 57.5905 45.0912 55.8485 46.2185C56.4633 47.0382 57.0782 47.7556 57.693 48.4729C59.64 47.4481 61.1771 46.2185 62.3043 44.2715C63.4315 42.222 63.534 40.07 63.329 37.9181C63.2266 36.381 62.5092 35.1513 60.9721 34.434C59.0251 33.6142 56.7707 34.434 56.3608 36.381C55.8485 38.8404 55.8485 40.7874 58.9227 41.6072Z" fill="#1EB0EE"/>
</svg>
